<svg width="24" height="24" viewBox="0 0 24 24" fill="none" xmlns="http://www.w3.org/2000/svg">
<path d="M19.463 5.57572C18.7758 4.82596 17.5346 4.77976 16.7073 5.60711L8.6073 13.7071C8.39783 13.9166 8.39783 14.1834 8.6073 14.3929C8.81678 14.6024 9.08361 14.6024 9.29309 14.3929L15.9931 7.69289C16.3836 7.30237 17.0168 7.30237 17.4073 7.69289C17.7978 8.08342 17.7978 8.71658 17.4073 9.10711L10.7073 15.8071C9.71678 16.7976 8.18361 16.7976 7.19309 15.8071C6.20256 14.8166 6.20256 13.2834 7.19309 12.2929L15.2931 4.19289C16.8606 2.62536 19.408 2.57435 20.9225 4.2082C22.4748 5.77661 22.5205 8.31156 20.8931 9.82132L11.4073 19.3071C9.21678 21.4976 5.78361 21.4976 3.59309 19.3071C1.40256 17.1166 1.40256 13.6834 3.59309 11.4929L11.6931 3.39289C12.0836 3.00237 12.7168 3.00237 13.1073 3.39289C13.4978 3.78342 13.4978 4.41658 13.1073 4.80711L5.0073 12.9071C3.59783 14.3166 3.59783 16.4834 5.0073 17.8929C6.41678 19.3024 8.58361 19.3024 9.99309 17.8929L19.4931 8.39289C19.5033 8.38265 19.5138 8.37263 19.5245 8.36284C20.2742 7.67556 20.3204 6.43445 19.4931 5.60711C19.4828 5.59686 19.4728 5.5864 19.463 5.57572Z" fill="#595959"/>
</svg>
