<svg width="24" height="24" viewBox="0 0 24 24" fill="none" xmlns="http://www.w3.org/2000/svg">
<path fill-rule="evenodd" clip-rule="evenodd" d="M2 6C2 4.89543 2.89543 4 4 4H18C19.1046 4 20 4.89543 20 6V8C21.1046 8 22 8.89543 22 10V18C22 19.1046 21.1046 20 20 20H6C4.89543 20 4 19.1046 4 18V16C2.89543 16 2 15.1046 2 14V6ZM18 16C19.1046 16 20 15.1046 20 14V18H6V16H18ZM18 6L4 6V14H18V6ZM10 10C10 9.44772 10.4477 9 11 9C11.5523 9 12 9.44772 12 10C12 10.5523 11.5523 11 11 11C10.4477 11 10 10.5523 10 10ZM11 7C9.34315 7 8 8.34315 8 10C8 11.6569 9.34315 13 11 13C12.6569 13 14 11.6569 14 10C14 8.34315 12.6569 7 11 7Z" fill="#595959"/>
</svg>
