<svg width="24" height="24" viewBox="0 0 24 24" fill="none" xmlns="http://www.w3.org/2000/svg">
<path d="M3.83319 4H8.32313L9.77034 7.61803L7.44546 9.16795C7.16727 9.35342 7.00016 9.66565 7.00016 10C7.0027 10.0936 7.00017 10.001 7.00017 10.001L7.00017 10.002L7.00017 10.0043L7.0002 10.0093L7.00035 10.0217C7.0005 10.0309 7.00075 10.0421 7.00117 10.0552C7.00202 10.0814 7.00355 10.1153 7.00629 10.1564C7.01176 10.2385 7.02208 10.3494 7.04147 10.4852C7.08022 10.7565 7.15544 11.1281 7.30148 11.5662C7.59472 12.4459 8.1709 13.5849 9.29306 14.7071C10.4152 15.8293 11.5542 16.4054 12.4339 16.6987C12.8721 16.8447 13.2437 16.9199 13.515 16.9587C13.6507 16.9781 13.7617 16.9884 13.8438 16.9939C13.8849 16.9966 13.9188 16.9981 13.945 16.999C13.9581 16.9994 13.9693 16.9997 13.9785 16.9998L13.9908 17L13.9959 17L13.9981 17L13.9992 17C13.9992 17 14.1108 16.9939 14.0002 17C14.3789 17 14.7252 16.786 14.8946 16.4472L15.5643 15.1078L20.0002 15.8471V20.167C17.8891 20.4723 12.1876 20.7732 7.70727 16.2929C3.22697 11.8126 3.52788 6.1111 3.83319 4ZM9.07381 10.4861L10.8797 9.28213C11.6667 8.75751 11.9785 7.75338 11.6273 6.87525L10.1801 3.25722C9.87636 2.4979 9.14094 2 8.32313 2H3.78094C2.87243 2 2.01725 2.63116 1.86811 3.6169C1.5288 5.8595 1.06695 12.481 6.29306 17.7071C11.5192 22.9332 18.1407 22.4714 20.3833 22.1321C21.369 21.9829 22.0002 21.1277 22.0002 20.2192V15.8471C22.0002 14.8694 21.2933 14.0351 20.329 13.8743L15.8931 13.135C15.027 12.9907 14.1681 13.4281 13.7754 14.2134L13.4289 14.9064C13.32 14.8796 13.1985 14.8453 13.0664 14.8013C12.4461 14.5946 11.5851 14.1707 10.7073 13.2929C9.82943 12.4151 9.40561 11.5541 9.19885 10.9338C9.14298 10.7662 9.10275 10.6154 9.07381 10.4861Z" fill="#595959"/>
</svg>
