<svg width="24" height="24" viewBox="0 0 24 24" fill="none" xmlns="http://www.w3.org/2000/svg">
<path d="M12 4C9.87827 4 7.84344 4.84285 6.34315 6.34315C4.84285 7.84344 4 9.87827 4 12C4 14.1217 4.84285 16.1566 6.34315 17.6569C7.84344 19.1571 9.87827 20 12 20C14.1217 20 16.1566 19.1571 17.6569 17.6569C19.1571 16.1566 20 14.1217 20 12C20 9.87827 19.1571 7.84344 17.6569 6.34315C16.1566 4.84285 14.1217 4 12 4ZM2 12C2 6.477 6.477 2 12 2C17.523 2 22 6.477 22 12C22 17.523 17.523 22 12 22C6.477 22 2 17.523 2 12ZM7.793 7.793C7.98053 7.60553 8.23484 7.50021 8.5 7.50021C8.76516 7.50021 9.01947 7.60553 9.207 7.793L12 10.586L14.793 7.793C14.8852 7.69749 14.9956 7.62131 15.1176 7.5689C15.2396 7.51649 15.3708 7.4889 15.5036 7.48775C15.6364 7.4866 15.7681 7.5119 15.891 7.56218C16.0139 7.61246 16.1255 7.68671 16.2194 7.7806C16.3133 7.8745 16.3875 7.98615 16.4378 8.10905C16.4881 8.23194 16.5134 8.36362 16.5123 8.4964C16.5111 8.62918 16.4835 8.7604 16.4311 8.8824C16.3787 9.00441 16.3025 9.11475 16.207 9.207L13.414 12L16.207 14.793C16.3892 14.9816 16.49 15.2342 16.4877 15.4964C16.4854 15.7586 16.3802 16.0094 16.1948 16.1948C16.0094 16.3802 15.7586 16.4854 15.4964 16.4877C15.2342 16.49 14.9816 16.3892 14.793 16.207L12 13.414L9.207 16.207C9.0184 16.3892 8.7658 16.49 8.5036 16.4877C8.2414 16.4854 7.99059 16.3802 7.80518 16.1948C7.61977 16.0094 7.5146 15.7586 7.51233 15.4964C7.51005 15.2342 7.61084 14.9816 7.793 14.793L10.586 12L7.793 9.207C7.60553 9.01947 7.50021 8.76516 7.50021 8.5C7.50021 8.23484 7.60553 7.98053 7.793 7.793Z" fill="#595959"/>
</svg>
