<svg width="24" height="24" viewBox="0 0 24 24" fill="none" xmlns="http://www.w3.org/2000/svg">
<path fill-rule="evenodd" clip-rule="evenodd" d="M4 4C4 2.89543 4.89543 2 6 2H20C21.1046 2 22 2.89543 22 4V20C22 21.1046 21.1046 22 20 22H6C4.89543 22 4 21.1046 4 20V19H3C2.44772 19 2 18.5523 2 18C2 17.4477 2.44772 17 3 17H4V15H3C2.44772 15 2 14.5523 2 14C2 13.4477 2.44772 13 3 13H4V11H3C2.44772 11 2 10.5523 2 10C2 9.44772 2.44772 9 3 9H4V7H3C2.44772 7 2 6.55228 2 6C2 5.44772 2.44772 5 3 5H4V4ZM6 20H20V4L6 4V20ZM13 14C11.3431 14 10 15.3431 10 17C10 17.5523 9.55228 18 9 18C8.44772 18 8 17.5523 8 17C8 14.9347 9.25218 13.1619 11.0388 12.3993C10.1102 11.77 9.5 10.7062 9.5 9.5C9.5 7.567 11.067 6 13 6C14.933 6 16.5 7.567 16.5 9.5C16.5 10.7062 15.8898 11.77 14.9612 12.3993C16.7478 13.1619 18 14.9347 18 17C18 17.5523 17.5523 18 17 18C16.4477 18 16 17.5523 16 17C16 15.3431 14.6569 14 13 14ZM11.5 9.5C11.5 8.67157 12.1716 8 13 8C13.8284 8 14.5 8.67157 14.5 9.5C14.5 10.3284 13.8284 11 13 11C12.1716 11 11.5 10.3284 11.5 9.5Z" fill="#595959"/>
</svg>
