<svg width="24" height="24" viewBox="0 0 24 24" fill="none" xmlns="http://www.w3.org/2000/svg">
<path fill-rule="evenodd" clip-rule="evenodd" d="M6 2C4.89543 2 4 2.89543 4 4V20C4 21.1046 4.89543 22 6 22H18C19.1046 22 20 21.1046 20 20V8C20 7.73478 19.8946 7.48043 19.7071 7.29289L14.7071 2.29289C14.5196 2.10536 14.2652 2 14 2H6ZM12 4L6 4V20H18V10H13C12.4477 10 12 9.55228 12 9V4ZM17.5858 8H14V4.41421L17.5858 8ZM11 18C11 17.4477 11.4477 17 12 17C12.5523 17 13 17.4477 13 18C13 18.5523 12.5523 19 12 19C11.4477 19 11 18.5523 11 18ZM10.9864 13.2579C11.0622 12.803 11.4897 12.473 12.0888 12.5015C12.3679 12.5148 12.5963 12.6129 12.7434 12.7503C12.8736 12.872 13 13.078 13 13.4572C13 13.6952 12.9558 13.8322 12.918 13.9077C12.8824 13.979 12.8344 14.0324 12.7635 14.0797C12.595 14.192 12.2841 14.2753 11.8182 14.2753C11.2659 14.2753 10.8182 14.7231 10.8182 15.2753C10.8182 15.8276 11.2659 16.2753 11.8182 16.2753C12.4431 16.2753 13.2231 16.1769 13.8729 15.7438C14.5942 15.2629 15 14.4757 15 13.4572C15 12.5636 14.6718 11.815 14.1089 11.289C13.5627 10.7787 12.8593 10.5359 12.1839 10.5038C10.8739 10.4414 9.3014 11.2022 9.01358 12.9291C8.92278 13.4739 9.2908 13.9891 9.83557 14.0799C10.3803 14.1707 10.8956 13.8027 10.9864 13.2579Z" fill="#595959"/>
</svg>
