<svg width="24" height="24" viewBox="0 0 24 24" fill="none" xmlns="http://www.w3.org/2000/svg">
<path fill-rule="evenodd" clip-rule="evenodd" d="M4 4.00003C4 2.89546 4.89543 2.00003 6 2.00003H14C14.2652 2.00003 14.5196 2.10539 14.7071 2.29292L19.7071 7.29292C19.8946 7.48046 20 7.73481 20 8.00003V20C20 21.1046 19.1046 22 18 22H6C4.89543 22 4 21.1046 4 20V4.00003ZM14 9.00003C13.4477 9.00003 13 8.55231 13 8.00003V4.00003H13.5L18 8.50003V9.00003H14ZM8 13C8 12.4477 8.44772 12 9 12H15C15.5523 12 16 12.4477 16 13C16 13.5523 15.5523 14 15 14H9C8.44772 14 8 13.5523 8 13ZM9 16C8.44772 16 8 16.4477 8 17C8 17.5523 8.44772 18 9 18H15C15.5523 18 16 17.5523 16 17C16 16.4477 15.5523 16 15 16H9Z" fill="#595959"/>
</svg>
