<svg width="24" height="24" viewBox="0 0 24 24" fill="none" xmlns="http://www.w3.org/2000/svg">
<g clip-path="url(#clip0)">
<path fill-rule="evenodd" clip-rule="evenodd" d="M1.70001 0.3L23.7 22.3C24.1 22.7 24.1 23.3 23.7 23.7C23.5 23.9 23.2 24 23 24C22.8 24 22.5 23.9 22.3 23.7L17.8 19.2C16.1 20.4 14.1 21 12 21C4.50001 21 0.300012 12.8 0.100012 12.4C-0.0999878 12.1 -0.0999878 11.8 0.100012 11.5C1.30001 9.4 2.80001 7.6 4.60001 6L0.300012 1.7C-0.0999878 1.3 -0.0999878 0.7 0.300012 0.3C0.700012 -0.1 1.30001 -0.1 1.70001 0.3ZM12.5 13.9L10 11.4C10 11.5652 9.96971 11.7 9.94246 11.8212C9.92022 11.9202 9.90001 12.0101 9.90001 12.1C9.90001 12.6 10.1 13.1 10.5 13.5C10.9 13.8 11.4 14 11.9 14C12.1 14 12.3 14 12.5 13.9ZM2.10001 12C3.10001 13.6 6.60001 19 12 19C13.5 19 15 18.6 16.3 17.9L14 15.6C13.4 15.9 12.7 16.2 12 16.2H11.9C10.9 16.2 9.90001 15.8 9.20001 15.1C8.40001 14.4 7.90001 13.4 7.90001 12.3C7.90001 11.5 8.10001 10.7 8.50001 10L6.00001 7.4C4.40001 8.7 3.10001 10.2 2.10001 12Z" fill="#7A7A7A"/>
<path d="M12 5C11.4 5 10.7 5.1 10.1 5.2C9.60001 5.3 9.00001 5.1 8.90001 4.5C8.80001 3.9 9.10001 3.4 9.70001 3.3C10.4 3.1 11.2 3 12 3C18.8027 3 22.8905 9.74605 23.741 11.1498C23.8282 11.2936 23.8814 11.3814 23.9 11.4C24.1 11.7 24.1 12 23.9 12.3C23.2 13.5 22.5 14.7 21.6 15.7C21.4 16 21.1 16.1 20.8 16.1C20.6 16.1 20.4 16.1 20.2 15.9C19.8 15.6 19.7 14.9 20.1 14.5C20.8 13.8 21.4 12.9 21.9 12C20.9 10.4 17.4 5 12 5Z" fill="#7A7A7A"/>
</g>
<defs>
<clipPath id="clip0">
<rect width="24" height="24" fill="white"/>
</clipPath>
</defs>
</svg>
