<svg width="24" height="24" viewBox="0 0 24 24" fill="none" xmlns="http://www.w3.org/2000/svg">
<path fill-rule="evenodd" clip-rule="evenodd" d="M12 8C9.79087 8 8.00001 9.79086 8.00001 12C8.00001 14.2091 9.79087 16 12 16C14.2091 16 16 14.2091 16 12C16 9.79086 14.2091 8 12 8ZM10 12C10 10.8954 10.8954 10 12 10C13.1046 10 14 10.8954 14 12C14 13.1046 13.1046 14 12 14C10.8954 14 10 13.1046 10 12Z" fill="#7A7A7A"/>
<path fill-rule="evenodd" clip-rule="evenodd" d="M23.8941 11.5521C23.8943 11.5525 23.8944 11.5528 23 12C23.8944 12.4472 23.8943 12.4475 23.8941 12.4479L23.8925 12.4511L23.889 12.458L23.8777 12.4802C23.8681 12.4987 23.8547 12.5247 23.8373 12.5576C23.8025 12.6233 23.752 12.7168 23.686 12.834C23.5542 13.0684 23.3602 13.3985 23.1057 13.7925C22.5979 14.5787 21.8432 15.6294 20.8545 16.6839C18.8955 18.7736 15.8995 21 12 21C8.1005 21 5.10449 18.7736 3.14547 16.6839C2.15684 15.6294 1.40207 14.5787 0.894343 13.7925C0.639857 13.3985 0.445799 13.0684 0.313979 12.834C0.248031 12.7168 0.197547 12.6233 0.162761 12.5576C0.145364 12.5247 0.131882 12.4987 0.122345 12.4802L0.110997 12.458L0.107546 12.4511L0.106377 12.4488C0.106194 12.4484 0.10558 12.4472 1.00001 12C0.10558 11.5528 0.105748 11.5525 0.105932 11.5521L0.107546 11.5489L0.110997 11.542L0.122345 11.5198C0.131882 11.5013 0.145364 11.4753 0.162761 11.4424C0.197547 11.3767 0.248031 11.2832 0.313979 11.166C0.445799 10.9316 0.639857 10.6015 0.894343 10.2075C1.40207 9.42131 2.15684 8.3706 3.14547 7.31606C5.10449 5.22644 8.1005 3 12 3C15.8995 3 18.8955 5.22644 20.8545 7.31606C21.8432 8.3706 22.5979 9.42131 23.1057 10.2075C23.3602 10.6015 23.5542 10.9316 23.686 11.166C23.752 11.2832 23.8025 11.3767 23.8373 11.4424C23.8547 11.4753 23.8681 11.5013 23.8777 11.5198L23.889 11.542L23.8925 11.5489L23.8941 11.5521ZM2.57442 12.7075C2.39493 12.4296 2.25004 12.1889 2.14075 12C2.25004 11.8111 2.39493 11.5704 2.57442 11.2925C3.03544 10.5787 3.71817 9.6294 4.60454 8.68394C6.39553 6.77356 8.89952 5 12 5C15.1005 5 17.6045 6.77356 19.3955 8.68394C20.2818 9.6294 20.9646 10.5787 21.4256 11.2925C21.6051 11.5704 21.75 11.8111 21.8593 12C21.75 12.1889 21.6051 12.4296 21.4256 12.7075C20.9646 13.4213 20.2818 14.3706 19.3955 15.3161C17.6045 17.2264 15.1005 19 12 19C8.89952 19 6.39553 17.2264 4.60454 15.3161C3.71817 14.3706 3.03544 13.4213 2.57442 12.7075Z" fill="#7A7A7A"/>
<path d="M23 12L23.8941 11.5521C24.0348 11.8336 24.0348 12.1664 23.8941 12.4479L23 12Z" fill="#7A7A7A"/>
<path d="M0.105932 11.5521L1.00001 12L0.10558 12.4472C-0.0351837 12.1657 -0.0348316 11.8336 0.105932 11.5521Z" fill="#7A7A7A"/>
</svg>
