<svg width="24" height="24" viewBox="0 0 24 24" fill="none" xmlns="http://www.w3.org/2000/svg">
<path d="M9 7C9 6.44772 9.44772 6 10 6H19C19.5523 6 20 6.44772 20 7C20 7.55228 19.5523 8 19 8H10C9.44772 8 9 7.55228 9 7ZM9 12C9 11.4477 9.44772 11 10 11H19C19.5523 11 20 11.4477 20 12C20 12.5523 19.5523 13 19 13H10C9.44772 13 9 12.5523 9 12ZM9 17C9 16.4477 9.44772 16 10 16H19C19.5523 16 20 16.4477 20 17C20 17.5523 19.5523 18 19 18H10C9.44772 18 9 17.5523 9 17Z" fill="#595959"/>
<path d="M4 6V5H6V9.001H5V6H4Z" fill="#595959"/>
<path d="M4 11V10H7V10.9L5.201 13H7V14H4V13.101L5.8 11H4Z" fill="#595959"/>
<path d="M4 16V15H7V19H4V17.999H6V17.5H5V16.5H6V16H4Z" fill="#595959"/>
</svg>
