<svg width="24" height="24" viewBox="0 0 24 24" fill="none" xmlns="http://www.w3.org/2000/svg">
<path fill-rule="evenodd" clip-rule="evenodd" d="M11.47 2.152C11.7943 1.94933 12.2057 1.94933 12.53 2.152L20.5153 7.14284C20.5642 7.17231 20.6104 7.20584 20.6534 7.24298C20.6897 7.27431 20.7235 7.30807 20.7547 7.34391C20.9075 7.51952 21 7.74896 21 8V16C21 16.3448 20.8224 16.6653 20.53 16.848L12.543 21.8399C12.3867 21.9412 12.2002 22 12 22C11.7998 22 11.6133 21.9412 11.457 21.8399L3.47 16.848C3.17762 16.6653 3 16.3448 3 16V8C3 7.74896 3.09251 7.51952 3.24529 7.34391C3.27645 7.30807 3.31027 7.27431 3.34658 7.24298C3.38957 7.20584 3.43576 7.1723 3.48467 7.14283L7.44945 4.66484C7.46251 4.65625 7.47574 4.64798 7.48914 4.64004L11.47 2.152ZM7.99994 6.67929L5.8868 8L12 11.8208L14.1131 10.5L7.99994 6.67929ZM15.9999 9.32079L9.88673 5.50004L12 4.17925L18.1132 8L15.9999 9.32079ZM16.5146 11.3577C16.5253 11.3512 16.536 11.3445 16.5465 11.3377L19 9.80425V15.4458L13 19.1958V13.5542L16.5146 11.3577ZM5 9.80425L11 13.5542V19.1958L5 15.4458V9.80425Z" fill="#595959"/>
</svg>
