<svg width="24" height="24" viewBox="0 0 24 24" fill="none" xmlns="http://www.w3.org/2000/svg">
<path d="M17.7071 2.29289C17.3166 1.90237 16.6834 1.90237 16.2929 2.29289L14 4.58579L12.7071 3.29289C12.3166 2.90237 11.6834 2.90237 11.2929 3.29289L5.29289 9.29289C4.90237 9.68342 4.90237 10.3166 5.29289 10.7071C5.68342 11.0976 6.31658 11.0976 6.70711 10.7071L12 5.41421L12.5858 6L10.2929 8.29289L3.29289 15.2929C3.10536 15.4804 3 15.7348 3 16V20C3 20.5523 3.44772 21 4 21H8C8.26522 21 8.51957 20.8946 8.70711 20.7071L15.7071 13.7071L21.7071 7.70711C22.0976 7.31658 22.0976 6.68342 21.7071 6.29289L17.7071 2.29289ZM14.7071 6.70711L17 4.41421L19.5858 7L15 11.5858L12.4142 9L14.7071 6.70711ZM5 16.4142L11 10.4142L13.5858 13L7.58579 19H5V16.4142Z" fill="#595959"/>
</svg>
