<svg width="24" height="24" viewBox="0 0 24 24" fill="none" xmlns="http://www.w3.org/2000/svg">
<path d="M7 2C6.44772 2 6 2.44772 6 3V7H4C2.89543 7 2 7.89543 2 9V17C2 18.1046 2.89543 19 4 19H6V21C6 21.5523 6.44772 22 7 22H17C17.5523 22 18 21.5523 18 21V19H20C21.1046 19 22 18.1046 22 17V9C22 7.89543 21.1046 7 20 7H18V3C18 2.44772 17.5523 2 17 2H7ZM17 14H7C6.44772 14 6 14.4477 6 15V17H4V9H7H17H20V17H18V15C18 14.4477 17.5523 14 17 14ZM16 7H8V4H16V7ZM5 10V12H8V10H5ZM16 16V20H8V16H16Z" fill="#595959"/>
</svg>
