<svg width="24" height="24" viewBox="0 0 24 24" fill="none" xmlns="http://www.w3.org/2000/svg">
<path fill-rule="evenodd" clip-rule="evenodd" d="M10 2C9.44772 2 9 2.44772 9 3V3.48341C5.22342 4.73933 2.5 8.30162 2.5 12.5C2.5 17.7467 6.75329 22 12 22C17.2467 22 21.5 17.7467 21.5 12.5C21.5 10.4453 20.8477 8.54296 19.7389 6.98875C19.9051 6.69714 20 6.35966 20 6C20 5.49278 19.8112 5.02965 19.5 4.67709C19.1335 4.26188 18.5973 4 18 4C17.5834 4 17.1966 4.12737 16.8763 4.34529C16.289 3.99338 15.6606 3.70311 15 3.48341V3C15 2.44772 14.5523 2 14 2H10ZM12 5C7.85786 5 4.5 8.35786 4.5 12.5C4.5 16.6421 7.85786 20 12 20C16.1421 20 19.5 16.6421 19.5 12.5C19.5 8.35786 16.1421 5 12 5ZM14 12.5C14 13.6046 13.1046 14.5 12 14.5C10.8954 14.5 10 13.6046 10 12.5C10 11.7597 10.4022 11.1134 11 10.7676L11 8.5C11 7.94771 11.4477 7.5 12 7.5C12.5523 7.5 13 7.94772 13 8.5L13 10.7676C13.5978 11.1134 14 11.7597 14 12.5Z" fill="#595959"/>
</svg>
