<svg width="24" height="24" viewBox="0 0 24 24" fill="none" xmlns="http://www.w3.org/2000/svg">
<path d="M12.0002 14C11.4479 14 11.0002 13.5523 11.0002 13V10C11.0002 9.44772 11.4479 9 12.0002 9C12.5525 9 13.0002 9.44772 13.0002 10V13C13.0002 13.5523 12.5525 14 12.0002 14Z" fill="#595959"/>
<path d="M10.5002 16.5C10.5002 15.6716 11.1717 15 12.0002 15C12.8286 15 13.5002 15.6716 13.5002 16.5C13.5002 17.3284 12.8286 18 12.0002 18C11.1717 18 10.5002 17.3284 10.5002 16.5Z" fill="#595959"/>
<path d="M10.2303 3.2156C10.9802 1.79093 13.0202 1.79092 13.77 3.2156L22.1136 19.0685C22.8146 20.4003 21.8488 22 20.3438 22H3.65653C2.15151 22 1.18574 20.4003 1.8867 19.0685L10.2303 3.2156ZM20.3438 20L12.0002 4.14709L3.65653 20L20.3438 20Z" fill="#595959"/>
</svg>
