<svg width="180" height="75" viewBox="0 0 180 75" fill="none" xmlns="http://www.w3.org/2000/svg">
<path d="M62.7052 38.5787C63.0123 38.3636 63.1966 38.2715 63.3809 38.1486C64.8246 37.2886 66.2683 36.3978 67.7427 35.5684C68.2035 35.3227 68.6949 35.1077 69.1864 34.9848C70.9373 34.4933 72.2888 35.292 72.7495 37.0428C73.0567 38.2101 72.9646 39.3466 72.6881 40.4831C72.6267 40.7903 72.5345 41.0974 72.4424 41.5582C72.7495 41.3125 72.9338 41.1896 73.1181 41.036C75.2683 39.4695 77.3878 37.8722 79.5379 36.3056C80.3673 35.722 81.2888 35.2305 82.1796 34.7391C82.9475 34.309 83.439 34.4933 83.8076 35.2613C84.1762 35.9677 84.2069 36.7357 84.0226 37.5036C83.8383 38.2101 83.6233 38.8858 83.4083 39.5616C82.8861 41.1896 82.3946 42.8176 82.456 44.5684C82.4868 45.0906 82.5789 45.6128 82.7632 46.0735C83.1625 47.0872 83.9919 47.5479 85.0362 47.3022C85.712 47.1486 86.3571 46.8722 86.9407 46.5036C89.0601 45.152 90.9031 43.4933 92.2854 41.4046C93.2376 39.9916 94.0362 38.4865 94.8963 37.0121C95.1421 36.6128 95.3263 36.1828 95.6335 35.8142C96.2171 35.0155 96.8622 34.9541 97.6915 35.507C97.7837 35.5684 97.8451 35.6299 97.968 35.722C99.4117 34.4319 101.04 33.7869 102.883 34.7084C104.603 35.5991 105.432 37.135 105.494 39.2237C105.709 38.8858 105.831 38.6708 105.985 38.4865C106.354 37.9643 106.907 37.6879 107.459 37.8722C108.074 38.0565 108.627 38.3944 108.688 39.1008C108.719 39.5616 108.627 40.0838 108.442 40.5445C108.166 41.2203 107.797 41.8654 107.429 42.5411C107.183 43.0326 107.06 43.5548 107.122 44.1077C107.183 44.722 107.49 44.9985 108.105 44.937C108.381 44.9063 108.688 44.8142 108.965 44.722C109.702 44.4148 110.378 43.9848 110.93 43.3705C111.944 42.2647 112.927 41.1589 113.91 40.0224C114.739 39.1008 115.507 38.1179 116.367 37.2271C116.859 36.7049 117.442 36.2749 118.026 35.8756C118.364 35.6299 118.794 35.507 119.193 35.4148C120.391 35.1691 121.405 35.9063 121.466 37.135C121.497 37.6572 121.405 38.2408 121.251 38.7323C120.975 39.7152 120.576 40.6981 120.238 41.6811C120.084 42.1725 119.869 42.664 119.746 43.1555C119.439 44.5377 120.299 45.6435 121.743 45.6435C122.265 45.6435 122.849 45.5206 123.34 45.3363C124.753 44.8142 125.982 43.9848 127.087 42.9712C128.593 41.5889 129.729 39.9609 130.804 38.0872C130.497 38.1793 130.313 38.2101 130.159 38.2715C129.422 38.6094 128.654 38.9473 127.917 39.2852C127.61 39.4387 127.272 39.5616 126.965 39.6845C126.289 39.8995 125.828 39.6538 125.644 38.978C125.613 38.9165 125.613 38.8244 125.582 38.763C125.214 36.92 126.473 34.2783 128.193 33.5104C129.33 32.9882 130.589 32.6503 131.756 32.251C131.91 32.1896 132.094 32.1589 132.279 32.1282C133.999 31.9131 135.197 30.9609 135.965 29.4251C136.21 28.9029 136.487 28.4114 136.825 27.9507C137.132 27.5514 137.531 27.1828 137.961 26.9063C138.453 26.5991 138.883 26.722 139.282 27.1828C139.712 27.6742 139.866 28.2886 139.651 28.9029C139.497 29.3329 139.282 29.763 139.098 30.193C138.975 30.4387 138.883 30.6845 138.668 31.0838C139.405 30.9609 139.988 30.8688 140.541 30.7152C144.811 29.5172 149.203 28.995 153.565 28.2271C155.285 27.92 157.006 27.6435 158.572 26.8142C159.033 26.5684 159.616 26.5377 160.139 26.4456C160.507 26.3841 160.784 26.5991 161.029 26.9063C161.582 27.6742 161.674 28.5036 161.275 29.3636C161.06 29.8244 160.753 30.2852 160.415 30.6538C159.371 31.7903 158.081 32.5582 156.576 32.9575C153.258 33.7869 149.91 34.3398 146.531 34.8927C143.705 35.3534 140.91 35.8756 138.084 36.3363C136.364 36.6128 135.135 37.5343 134.337 39.1008C133.415 40.9131 132.862 42.8176 133.108 44.8756C133.415 47.2408 134.89 48.5616 137.316 48.6845C140.326 48.8073 143.214 48.1623 145.978 47.0258C148.282 46.0735 150.401 44.7834 152.306 43.1555C152.429 43.0326 152.552 42.9097 152.705 42.8176C153.258 42.449 153.903 42.6026 154.21 43.2169C154.517 43.8619 154.487 44.507 154.241 45.1828C153.995 45.8892 153.565 46.4421 153.074 46.9643C152.275 47.8244 151.323 48.5002 150.309 49.0838C147.36 50.8346 144.166 51.9097 140.879 52.6776C139.221 53.077 137.562 53.3227 135.842 53.2613C134.705 53.1998 133.63 53.0155 132.586 52.5548C130.558 51.664 129.453 50.0974 129.145 47.9473C129.084 47.4865 129.023 47.0258 128.961 46.4729C128.777 46.6264 128.623 46.7186 128.5 46.8107C126.903 48.0394 125.214 49.1452 123.401 50.036C121.927 50.7732 120.391 51.2032 118.732 51.1725C116.674 51.1111 115.384 49.9439 115.2 47.8858C115.046 46.4114 115.323 44.9677 115.814 43.5855C115.907 43.3705 115.968 43.1247 116.06 42.9097C115.999 42.879 115.937 42.8176 115.876 42.7869C115.722 42.9712 115.599 43.1862 115.446 43.3705C114.217 44.7527 113.019 46.135 111.76 47.4558C110.9 48.3466 109.978 49.1759 108.995 49.9439C108.166 50.6196 107.183 51.0497 106.077 51.1725C103.958 51.4183 102.483 50.251 102.33 48.1316C102.299 47.7323 102.33 47.3329 102.33 46.9029C101.992 46.9643 101.9 47.2715 101.715 47.4558C101.04 48.2544 100.456 49.1145 99.6881 49.821C98.7359 50.7118 97.6608 51.5104 96.5857 52.2476C95.8485 52.7698 94.9885 53.077 94.067 53.077C92.6233 53.077 91.5789 52.3705 91.1489 50.9882C90.9646 50.3739 90.9339 49.7288 90.8724 49.0838C90.8417 48.8688 90.8724 48.6538 90.8724 48.2544C90.5653 48.5309 90.381 48.7152 90.1659 48.8995C89.183 49.7596 88.2308 50.6811 87.1864 51.4797C86.2342 52.2476 85.1284 52.7698 83.8997 52.9848C81.7188 53.3534 79.8451 52.309 79.0465 50.2817C78.4629 48.8381 78.3707 47.3022 78.4936 45.7664C78.6164 44.3841 78.8315 43.0019 79.4458 41.7425L79.5379 41.466C79.5379 41.4353 79.5072 41.4353 79.4458 41.3432C79.2308 41.4968 79.0158 41.6196 78.8008 41.7732C76.497 43.6162 74.1932 45.4592 71.9202 47.3637C70.3536 48.7152 69.0328 50.2817 67.927 52.0633C67.712 52.4319 67.3741 52.7698 67.0055 52.9848C66.299 53.4148 65.6233 53.077 65.4083 52.2783C65.224 51.5718 65.2854 50.8961 65.5004 50.2203C65.7461 49.4217 66.0533 48.623 66.3912 47.8551C66.8519 46.78 67.4048 45.7664 67.8656 44.6913C68.0806 44.1998 68.2956 43.6776 68.4492 43.1555C68.5106 42.9097 68.5414 42.6026 68.4799 42.3568C68.3263 41.3125 67.8042 40.9746 66.8212 41.3125C66.299 41.4968 65.7769 41.8039 65.3161 42.1111C62.1523 44.1691 59.4799 46.7493 57.2376 49.7596C56.869 50.2203 56.6233 50.7732 56.2547 51.2647C55.9782 51.664 55.671 52.0633 55.3024 52.4012C54.9338 52.7391 54.4731 52.8619 53.9816 52.6469C53.4902 52.4626 53.3673 52.0326 53.3059 51.5718C53.2137 50.5582 53.3059 49.5753 53.7052 48.6538C54.1966 47.5172 54.7495 46.4114 55.3332 45.3363C56.1932 43.7698 57.1455 42.2647 58.0055 40.6981C58.4356 39.9302 58.8042 39.1009 59.1728 38.3022C59.4492 37.6879 59.4799 37.0428 59.4185 36.3978C59.3263 35.6299 58.8963 35.292 58.1284 35.4456C56.8383 35.722 55.5482 36.0292 54.3195 36.4592C52.2001 37.1964 50.142 38.0565 48.084 38.9165C47.5311 39.1316 47.0089 39.4694 46.5175 39.7766C46.026 40.1145 45.9646 40.4831 46.241 41.0053C46.3024 41.1589 46.3946 41.3125 46.4867 41.466C47.5311 42.9712 47.6847 44.6299 47.1932 46.35C46.3639 49.3295 44.4902 51.5411 41.8485 53.1384C39.9441 54.2749 37.8553 54.8892 35.6745 55.2271C34.6301 55.3807 33.555 55.5343 32.4799 55.5957C31.6506 55.6572 30.7905 55.6264 29.9611 55.4729C28.2717 55.1964 27.2888 54.0292 27.1659 52.2783C27.1045 51.2954 27.2581 50.3432 27.5345 49.4217C28.0874 47.5172 29.1011 45.8892 30.5755 44.5684C31.8656 43.4012 33.2171 42.2954 34.7222 41.4353C35.4287 41.036 36.1045 40.5753 36.8724 40.0838C36.6574 39.9302 36.5345 39.8073 36.3809 39.7459C35.8588 39.5309 35.3673 39.3466 34.8451 39.193C31.4048 38.1179 27.9646 37.0428 24.5243 35.937C23.4492 35.5991 22.3741 35.1691 21.3297 34.7084C19.4253 33.879 18.6267 32.1589 18.7495 30.0394C18.9338 26.5684 20.654 23.9575 23.5413 22.0838C25.6915 20.7015 28.0874 19.8722 30.6062 19.35C32.6028 18.92 34.6301 18.6435 36.6881 18.7664C37.7325 18.8278 38.7768 18.9507 39.7905 19.2271C42.2478 19.8722 43.1079 21.408 42.555 23.8961C42.3707 24.664 42.0943 25.4012 41.6028 26.0462C40.8349 27.0292 39.8827 27.1828 38.869 26.4763C38.7461 26.3841 38.6233 26.3227 38.5004 26.1998C37.3024 25.0019 35.7973 24.6947 34.1693 24.6947C31.712 24.6947 29.3775 25.2783 27.1352 26.2305C25.9987 26.722 24.9236 27.3671 23.8485 27.9814C23.2035 28.35 23.2035 28.6572 23.8485 29.0565C24.2785 29.3329 24.77 29.5479 25.2615 29.7322C27.7495 30.5923 30.2683 31.391 32.7564 32.251C34.8451 32.9575 36.9031 33.8176 38.8076 34.9541C39.514 35.3841 40.3127 35.6913 41.1113 35.9677C41.91 36.2442 42.7393 36.2135 43.5072 35.8449C44.7973 35.2305 46.1181 34.5855 47.3775 33.9404C50.2035 32.466 53.0908 31.1452 56.1011 30.1009C57.5755 29.5787 59.0499 29.2408 60.6472 29.3944C62.5516 29.5787 63.7803 30.8381 63.9031 32.7425C63.9953 34.1247 63.6574 35.4456 63.1966 36.7357C63.1352 37.4729 62.9509 37.9643 62.7052 38.5787ZM33.6472 50.6503C34.8758 50.466 36.3195 50.3125 37.7018 49.9746C38.8997 49.6981 40.0669 49.2681 41.2035 48.7766C41.8178 48.5002 42.4014 48.0394 42.8622 47.5787C43.5379 46.9336 43.5687 46.135 43.1079 45.3363C42.8622 44.937 42.6164 44.5377 42.34 44.1691C41.6642 43.3398 40.9885 43.1555 40.0362 43.5855C39.4833 43.8312 38.9304 44.1691 38.4082 44.507C37.1796 45.3363 35.9509 46.1964 34.7222 47.0258C33.8929 47.6094 33.0635 48.2237 32.2649 48.8381C31.9884 49.0531 31.7427 49.2988 31.5277 49.5445C31.1284 50.0053 31.2205 50.2817 31.8349 50.4353C32.3878 50.5582 32.91 50.5889 33.6472 50.6503ZM97.7223 39.1623C97.1079 40.3602 96.4629 41.5275 95.9407 42.6947C95.3878 43.9541 95.1113 45.2749 95.0499 46.6572C95.0192 47.4251 95.6949 47.8858 96.4014 47.5787C96.7393 47.4251 97.0772 47.1486 97.3229 46.8722C97.7223 46.3807 98.0909 45.8892 98.3366 45.3056C99.1352 43.5241 99.8724 41.7118 100.61 39.8995C100.763 39.5309 100.825 39.1316 100.855 38.7323C100.886 38.3636 100.702 38.2101 100.364 38.3329C99.9646 38.4558 99.5653 38.6094 99.2274 38.8551C98.7359 39.2237 98.2752 39.4387 97.7223 39.1623Z" fill="#FF4054"/>
</svg>
