<svg width="124" height="32" viewBox="0 0 124 32" fill="none" xmlns="http://www.w3.org/2000/svg">
<path d="M38.1414 17.2123C38.4078 17.0257 38.5677 16.9458 38.7276 16.8392C39.98 16.0931 41.2323 15.3204 42.5114 14.6009C42.9111 14.3878 43.3374 14.2012 43.7637 14.0946C45.2826 13.6683 46.455 14.3611 46.8547 15.8799C47.1212 16.8925 47.0412 17.8784 46.8014 18.8643C46.7481 19.1308 46.6682 19.3972 46.5882 19.7969C46.8547 19.5838 47.0146 19.4772 47.1744 19.344C49.0397 17.985 50.8783 16.5994 52.7435 15.2404C53.463 14.7342 54.2624 14.3078 55.0351 13.8815C55.7013 13.5084 56.1276 13.6683 56.4473 14.3345C56.7671 14.9473 56.7937 15.6135 56.6339 16.2796C56.474 16.8925 56.2875 17.4787 56.1009 18.0649C55.648 19.4772 55.2216 20.8894 55.2749 22.4083C55.3016 22.8613 55.3815 23.3142 55.5414 23.7139C55.8878 24.5933 56.6072 24.993 57.5132 24.7798C58.0994 24.6466 58.659 24.4067 59.1653 24.087C61.0039 22.9145 62.6026 21.4757 63.8017 19.6637C64.6277 18.438 65.3205 17.1323 66.0666 15.8533C66.2798 15.5069 66.4397 15.1338 66.7061 14.8141C67.2124 14.1213 67.772 14.068 68.4914 14.5476C68.5714 14.6009 68.6247 14.6542 68.7313 14.7342C69.9836 13.615 71.3959 13.0554 72.9947 13.8548C74.4868 14.6276 75.2063 15.9599 75.2596 17.7718C75.4461 17.4787 75.5527 17.2922 75.6859 17.1323C76.0057 16.6793 76.4853 16.4395 76.9649 16.5994C77.4979 16.7593 77.9775 17.0524 78.0308 17.6652C78.0574 18.0649 77.9775 18.5179 77.8176 18.9176C77.5778 19.5038 77.258 20.0634 76.9383 20.6496C76.7251 21.076 76.6185 21.5289 76.6718 22.0086C76.7251 22.5415 76.9916 22.7813 77.5245 22.728C77.7643 22.7014 78.0308 22.6214 78.2706 22.5415C78.9101 22.275 79.4963 21.902 79.976 21.3691C80.8553 20.4098 81.708 19.4505 82.5607 18.4646C83.2801 17.6652 83.9463 16.8126 84.6924 16.0398C85.1187 15.5868 85.625 15.2138 86.1312 14.8674C86.4244 14.6542 86.7974 14.5476 87.1438 14.4677C88.183 14.2545 89.0623 14.894 89.1156 15.9599C89.1423 16.4129 89.0623 16.9191 88.9291 17.3455C88.6893 18.1982 88.3429 19.0508 88.0498 19.9035C87.9165 20.3299 87.73 20.7562 87.6234 21.1825C87.357 22.3816 88.1031 23.3409 89.3554 23.3409C89.8084 23.3409 90.3147 23.2343 90.7411 23.0744C91.9668 22.6214 93.0326 21.902 93.9919 21.0227C95.2976 19.8236 96.2835 18.4113 97.2161 16.7859C96.9496 16.8659 96.7897 16.8925 96.6565 16.9458C96.017 17.2389 95.3509 17.532 94.7113 17.8251C94.4449 17.9583 94.1518 18.0649 93.8853 18.1715C93.2991 18.358 92.8994 18.1449 92.7395 17.5587C92.7129 17.5054 92.7129 17.4254 92.6862 17.3721C92.3665 15.7734 93.459 13.4818 94.9512 12.8156C95.9371 12.3626 97.0296 12.0695 98.0421 11.7231C98.1754 11.6698 98.3352 11.6432 98.4951 11.6165C99.9873 11.43 101.027 10.604 101.693 9.27168C101.906 8.81869 102.146 8.39235 102.439 7.99266C102.705 7.64626 103.052 7.3265 103.425 7.08669C103.851 6.82022 104.224 6.92681 104.57 7.3265C104.943 7.75284 105.077 8.28577 104.89 8.81869C104.757 9.19174 104.57 9.56479 104.411 9.93783C104.304 10.151 104.224 10.3642 104.038 10.7106C104.677 10.604 105.183 10.5241 105.663 10.3908C109.367 9.35162 113.177 8.89863 116.961 8.23247C118.453 7.96601 119.945 7.72619 121.304 7.00675C121.704 6.79358 122.21 6.76693 122.663 6.68699C122.983 6.6337 123.223 6.82022 123.436 7.08669C123.916 7.75284 123.996 8.47229 123.649 9.21838C123.463 9.61808 123.196 10.0178 122.903 10.3375C121.997 11.3234 120.878 11.9896 119.572 12.336C116.694 13.0554 113.79 13.5351 110.859 14.0147C108.408 14.4144 105.983 14.8674 103.531 15.2671C102.039 15.5069 100.973 16.3063 100.28 17.6652C99.481 19.2374 99.0014 20.8894 99.2146 22.6747C99.481 24.7265 100.76 25.8723 102.865 25.9789C105.476 26.0854 107.981 25.5259 110.379 24.54C112.378 23.7139 114.216 22.5948 115.868 21.1825C115.975 21.076 116.082 20.9694 116.215 20.8894C116.694 20.5697 117.254 20.7029 117.521 21.2358C117.787 21.7954 117.76 22.355 117.547 22.9412C117.334 23.5541 116.961 24.0337 116.535 24.4867C115.842 25.2328 115.016 25.819 114.136 26.3253C111.578 27.8441 108.807 28.7767 105.956 29.4429C104.517 29.7893 103.078 30.0024 101.586 29.9492C100.6 29.8959 99.6675 29.736 98.7616 29.3363C97.0029 28.5635 96.0437 27.2046 95.7772 25.3394C95.7239 24.9397 95.6706 24.54 95.6173 24.0603C95.4574 24.1936 95.3242 24.2735 95.2176 24.3534C93.832 25.4193 92.3665 26.3786 90.7943 27.1513C89.5153 27.7908 88.183 28.1639 86.7441 28.1372C84.9588 28.0839 83.8397 27.0714 83.6798 25.2861C83.5466 24.007 83.7864 22.7547 84.2127 21.5556C84.2927 21.3691 84.346 21.1559 84.4259 20.9694C84.3726 20.9427 84.3193 20.8894 84.266 20.8628C84.1328 21.0227 84.0262 21.2092 83.893 21.3691C82.8271 22.5681 81.7879 23.7672 80.6954 24.913C79.9493 25.6858 79.1499 26.4052 78.2973 27.0714C77.5778 27.6576 76.7251 28.0306 75.7659 28.1372C73.9273 28.3504 72.6483 27.3378 72.515 25.4992C72.4884 25.1528 72.515 24.8064 72.515 24.4334C72.2219 24.4867 72.142 24.7531 71.9821 24.913C71.3959 25.6058 70.8896 26.3519 70.2234 26.9648C69.3974 27.7375 68.4648 28.4303 67.5322 29.0698C66.8927 29.5228 66.1466 29.7893 65.3472 29.7893C64.0948 29.7893 63.1888 29.1764 62.8158 27.9773C62.6559 27.4444 62.6293 26.8848 62.576 26.3253C62.5493 26.1387 62.576 25.9522 62.576 25.6058C62.3095 25.8456 62.1496 26.0055 61.9631 26.1654C61.1104 26.9115 60.2844 27.7109 59.3784 28.4037C58.5524 29.0698 57.5931 29.5228 56.5273 29.7093C54.6354 30.0291 53.01 29.1231 52.3172 27.3645C51.8109 26.1121 51.731 24.7798 51.8375 23.4475C51.9441 22.2484 52.1307 21.0493 52.6636 19.9568L52.7435 19.717C52.7435 19.6904 52.7169 19.6904 52.6636 19.6104C52.4771 19.7436 52.2905 19.8502 52.104 19.9835C50.1055 21.5822 48.1071 23.181 46.1353 24.8331C44.7763 26.0055 43.6305 27.3645 42.6712 28.9099C42.4847 29.2297 42.1916 29.5228 41.8718 29.7093C41.259 30.0824 40.6728 29.7893 40.4862 29.0965C40.3264 28.4836 40.3797 27.8974 40.5662 27.3112C40.7794 26.6184 41.0458 25.9256 41.3389 25.2594C41.7386 24.3268 42.2183 23.4475 42.6179 22.5149C42.8045 22.0885 42.991 21.6355 43.1242 21.1825C43.1775 20.9694 43.2042 20.7029 43.1509 20.4897C43.0176 19.5838 42.5647 19.2907 41.712 19.5838C41.259 19.7436 40.806 20.0101 40.4063 20.2766C37.6617 22.0619 35.3435 24.3001 33.3983 26.9115C33.0786 27.3112 32.8654 27.7908 32.5457 28.2171C32.3059 28.5636 32.0394 28.91 31.7196 29.2031C31.3999 29.4962 31.0002 29.6028 30.5738 29.4162C30.1475 29.2564 30.0409 28.8833 29.9876 28.4836C29.9077 27.6043 29.9876 26.7516 30.334 25.9522C30.7604 24.9663 31.24 24.007 31.7463 23.0744C32.4924 21.7155 33.3184 20.4098 34.0645 19.0508C34.4375 18.3847 34.7573 17.6652 35.0771 16.9724C35.3169 16.4395 35.3435 15.8799 35.2902 15.3204C35.2103 14.6542 34.8372 14.3611 34.1711 14.4943C33.0519 14.7342 31.9328 15.0006 30.867 15.3737C29.0284 16.0132 27.2431 16.7593 25.4578 17.5054C24.9781 17.6919 24.5252 17.985 24.0988 18.2515C23.6725 18.5446 23.6192 18.8643 23.859 19.3173C23.9123 19.4505 23.9922 19.5838 24.0722 19.717C24.9781 21.0227 25.1114 22.4616 24.685 23.9538C23.9656 26.5384 22.3402 28.457 20.0486 29.8426C18.3965 30.8285 16.5846 31.3614 14.6927 31.6545C13.7867 31.7877 12.8541 31.921 11.9215 31.9743C11.202 32.0276 10.4559 32.0009 9.73649 31.8677C8.27095 31.6279 7.41827 30.6153 7.31168 29.0965C7.25839 28.2438 7.39162 27.4178 7.63144 26.6184C8.11107 24.9663 8.99039 23.5541 10.2694 22.4083C11.3886 21.3957 12.561 20.4364 13.8667 19.6904C14.4795 19.344 15.0657 18.9443 15.7319 18.5179C15.5454 18.3847 15.4388 18.2781 15.3056 18.2248C14.8526 18.0383 14.4262 17.8784 13.9732 17.7452C10.9889 16.8126 8.00448 15.8799 5.0201 14.9207C4.08748 14.6276 3.15487 14.2545 2.2489 13.8548C0.596829 13.1354 -0.0959734 11.6432 0.0106116 9.8046C0.170489 6.79358 1.66268 4.52865 4.16742 2.90323C6.03266 1.70415 8.11107 0.984698 10.2961 0.531712C12.0281 0.158664 13.7867 -0.0811512 15.572 0.0254338C16.478 0.0787262 17.384 0.185311 18.2633 0.425127C20.395 0.984698 21.1411 2.31701 20.6614 4.47535C20.5016 5.14151 20.2618 5.78102 19.8354 6.34059C19.1693 7.19327 18.3432 7.3265 17.4639 6.71364C17.3573 6.6337 17.2507 6.58041 17.1441 6.47382C16.1049 5.43462 14.7993 5.16816 13.387 5.16816C11.2553 5.16816 9.23021 5.67443 7.28503 6.50047C6.29912 6.92681 5.36651 7.48638 4.43389 8.0193C3.87432 8.33906 3.87432 8.60552 4.43389 8.95192C4.80693 9.19174 5.23327 9.37826 5.65961 9.53814C7.81796 10.2842 10.003 10.977 12.1613 11.7231C13.9732 12.336 15.7585 13.0821 17.4106 14.068C18.0235 14.441 18.7163 14.7075 19.4091 14.9473C20.1019 15.1871 20.8213 15.1605 21.4875 14.8407C22.6066 14.3078 23.7524 13.7482 24.8449 13.1887C27.2964 11.9097 29.8011 10.7639 32.4124 9.85789C33.6915 9.40491 34.9705 9.1118 36.3561 9.24503C38.0081 9.40491 39.074 10.4974 39.1806 12.1495C39.2605 13.3486 38.9674 14.4943 38.5677 15.6135C38.5144 16.253 38.3545 16.6793 38.1414 17.2123ZM12.934 27.6842C13.9999 27.5243 15.2523 27.3911 16.4513 27.098C17.4905 26.8582 18.5031 26.4851 19.489 26.0588C20.0219 25.819 20.5282 25.4193 20.9279 25.0196C21.5141 24.46 21.5408 23.7672 21.1411 23.0744C20.9279 22.728 20.7147 22.3816 20.4749 22.0619C19.8887 21.3424 19.3025 21.1825 18.4765 21.5556C17.9968 21.7688 17.5172 22.0619 17.0642 22.355C15.9984 23.0744 14.9325 23.8205 13.8667 24.54C13.1472 25.0462 12.4278 25.5792 11.735 26.1121C11.4951 26.2986 11.282 26.5118 11.0954 26.725C10.749 27.1247 10.829 27.3645 11.3619 27.4977C11.8415 27.6043 12.2945 27.6309 12.934 27.6842ZM68.5181 17.7185C67.9852 18.7577 67.4256 19.7703 66.9726 20.7828C66.493 21.8753 66.2532 23.0211 66.1999 24.2202C66.1732 24.8864 66.7594 25.2861 67.3723 25.0196C67.6654 24.8864 67.9585 24.6466 68.1717 24.4067C68.5181 23.9804 68.8378 23.5541 69.051 23.0478C69.7438 21.5023 70.3833 19.9302 71.0228 18.358C71.1561 18.0383 71.2094 17.6919 71.236 17.3455C71.2626 17.0257 71.1028 16.8925 70.8097 16.9991C70.4633 17.1057 70.1169 17.2389 69.8238 17.4521C69.3974 17.7718 68.9977 17.9583 68.5181 17.7185Z" fill="#FF4054"/>
</svg>
